<svg xmlns="http://www.w3.org/2000/svg">
  <symbol id='icon-telegram' viewBox="0 0 24 24" fill="none">
    <path d="M20.9427 5.45113L17.9494 19.0465C17.7261 19.9841 17.1006 20.2398 16.2518 19.771L11.6502 16.532L9.46114 18.5777C9.19309 18.8334 9.01439 19.0039 8.52296 19.0039L8.83568 14.5289L17.3686 7.1985C17.7707 6.90017 17.2793 6.68707 16.7879 7.02802L6.24452 13.3356L1.73233 12.0144C0.749472 11.7161 0.704797 11.0768 1.91103 10.608L19.6918 4.08733C20.4959 3.789 21.2107 4.2578 20.9427 5.45113Z" fill="#E6EAFA"/>
  </symbol>
  <symbol id='icon-vk' viewBox="0 0 24 24" fill="none">
    <path d="M21.5739 6.825C21.2768 8.1 18.6025 11.925 18.6025 11.925C18.3797 12.3 18.2683 12.4875 18.6025 12.9C18.7511 13.0875 21.5368 15.7875 21.9453 17.0625C22.131 17.7 21.8339 18 21.2025 18H19.0111C18.194 18 17.934 17.3625 16.4483 15.8625C15.1483 14.5875 14.5912 14.4 14.2569 14.4C13.5883 14.4 13.6998 14.6625 13.6998 17.175C13.6998 17.7 13.5141 18 12.1398 18C9.83699 18 7.27418 16.6125 5.45422 13.9875C2.74284 10.125 2 7.2375 2 6.6375C2 6.3 2.14857 6 2.74284 6H4.93423C5.49136 6 5.71421 6.2625 5.93707 6.8625C7.01419 10.0125 8.79701 12.7875 9.53985 12.7875C9.83699 12.7875 9.94842 12.6375 9.94842 11.925V8.6625C9.87413 7.1625 9.09415 7.05 9.09415 6.525C9.09415 6.2625 9.27986 6 9.65128 6H13.0684C13.5512 6 13.6998 6.2625 13.6998 6.825V11.2125C13.6998 11.6625 13.9226 11.85 14.034 11.85C14.3312 11.85 14.554 11.6625 15.074 11.175C16.634 9.375 17.7483 6.6375 17.7483 6.6375C17.8968 6.3 18.1568 6 18.714 6H20.9053C21.5739 6 21.6853 6.375 21.5739 6.825Z" fill="#E6EAFA"/>
  </symbol>
    <symbol id='icon-telegram-blue' viewBox="0 0 24 24" fill="none">
    <path d="M20.9427 5.45113L17.9494 19.0465C17.7261 19.9841 17.1006 20.2398 16.2518 19.771L11.6502 16.532L9.46114 18.5777C9.19309 18.8334 9.01439 19.0039 8.52296 19.0039L8.83568 14.5289L17.3686 7.1985C17.7707 6.90017 17.2793 6.68707 16.7879 7.02802L6.24452 13.3356L1.73233 12.0144C0.749472 11.7161 0.704797 11.0768 1.91103 10.608L19.6918 4.08733C20.4959 3.789 21.2107 4.2578 20.9427 5.45113Z" fill="#274898"/>
  </symbol>
  <symbol id='icon-vk-blue' viewBox="0 0 24 24" fill="none">
    <path d="M21.5739 6.825C21.2768 8.1 18.6025 11.925 18.6025 11.925C18.3797 12.3 18.2683 12.4875 18.6025 12.9C18.7511 13.0875 21.5368 15.7875 21.9453 17.0625C22.131 17.7 21.8339 18 21.2025 18H19.0111C18.194 18 17.934 17.3625 16.4483 15.8625C15.1483 14.5875 14.5912 14.4 14.2569 14.4C13.5883 14.4 13.6998 14.6625 13.6998 17.175C13.6998 17.7 13.5141 18 12.1398 18C9.83699 18 7.27418 16.6125 5.45422 13.9875C2.74284 10.125 2 7.2375 2 6.6375C2 6.3 2.14857 6 2.74284 6H4.93423C5.49136 6 5.71421 6.2625 5.93707 6.8625C7.01419 10.0125 8.79701 12.7875 9.53985 12.7875C9.83699 12.7875 9.94842 12.6375 9.94842 11.925V8.6625C9.87413 7.1625 9.09415 7.05 9.09415 6.525C9.09415 6.2625 9.27986 6 9.65128 6H13.0684C13.5512 6 13.6998 6.2625 13.6998 6.825V11.2125C13.6998 11.6625 13.9226 11.85 14.034 11.85C14.3312 11.85 14.554 11.6625 15.074 11.175C16.634 9.375 17.7483 6.6375 17.7483 6.6375C17.8968 6.3 18.1568 6 18.714 6H20.9053C21.5739 6 21.6853 6.375 21.5739 6.825Z" fill="#274898"/>
  </symbol>
   <symbol id='icon-instagram' viewBox="0 0 24 24" fill="none">
    <path d="M12.0223 6.84375C14.8348 6.84375 17.1562 9.16518 17.1562 11.9777C17.1562 14.8348 14.8348 17.1116 12.0223 17.1116C9.16518 17.1116 6.88839 14.8348 6.88839 11.9777C6.88839 9.16518 9.16518 6.84375 12.0223 6.84375ZM12.0223 15.3259C13.8527 15.3259 15.3259 13.8527 15.3259 11.9777C15.3259 10.1473 13.8527 8.67411 12.0223 8.67411C10.1473 8.67411 8.67411 10.1473 8.67411 11.9777C8.67411 13.8527 10.192 15.3259 12.0223 15.3259ZM18.5402 6.66518C18.5402 7.33482 18.0045 7.87054 17.3348 7.87054C16.6652 7.87054 16.1295 7.33482 16.1295 6.66518C16.1295 5.99554 16.6652 5.45982 17.3348 5.45982C18.0045 5.45982 18.5402 5.99554 18.5402 6.66518ZM21.933 7.87054C22.0223 9.52232 22.0223 14.4777 21.933 16.1295C21.8438 17.7366 21.4866 19.1205 20.3259 20.3259C19.1652 21.4866 17.7366 21.8438 16.1295 21.933C14.4777 22.0223 9.52232 22.0223 7.87054 21.933C6.26339 21.8438 4.87946 21.4866 3.67411 20.3259C2.51339 19.1205 2.15625 17.7366 2.06696 16.1295C1.97768 14.4777 1.97768 9.52232 2.06696 7.87054C2.15625 6.26339 2.51339 4.83482 3.67411 3.67411C4.87946 2.51339 6.26339 2.15625 7.87054 2.06696C9.52232 1.97768 14.4777 1.97768 16.1295 2.06696C17.7366 2.15625 19.1652 2.51339 20.3259 3.67411C21.4866 4.83482 21.8438 6.26339 21.933 7.87054ZM19.7902 17.8705C20.3259 16.5759 20.192 13.4509 20.192 11.9777C20.192 10.5491 20.3259 7.42411 19.7902 6.08482C19.433 5.23661 18.7634 4.52232 17.9152 4.20982C16.5759 3.67411 13.4509 3.80804 12.0223 3.80804C10.5491 3.80804 7.42411 3.67411 6.12946 4.20982C5.23661 4.56696 4.56696 5.23661 4.20982 6.08482C3.67411 7.42411 3.80804 10.5491 3.80804 11.9777C3.80804 13.4509 3.67411 16.5759 4.20982 17.8705C4.56696 18.7634 5.23661 19.433 6.12946 19.7902C7.42411 20.3259 10.5491 20.192 12.0223 20.192C13.4509 20.192 16.5759 20.3259 17.9152 19.7902C18.7634 19.433 19.4777 18.7634 19.7902 17.8705Z" fill="#E6EAFA"/>
  </symbol>
  <symbol id='icon-switch__primary' viewBox="0 0 24 24" fill="none" xmlns="http://www.w3.org/2000/svg">
    <path d="M11 16L8 19M8 19L5 16M8 19L8 5M13 8L16 5M16 5L19 8M16 5L16 19" stroke="#274898" stroke-width="2" stroke-linecap="round" stroke-linejoin="round"/>
  </symbol>
  <symbol id='icon-switch__secondary' viewBox="0 0 24 24" fill="none" xmlns="http://www.w3.org/2000/svg">
    <path d="M11 16L8 19M8 19L5 16M8 19L8 5M13 8L16 5M16 5L19 8M16 5L16 19" stroke="#996A28" stroke-width="2" stroke-linecap="round" stroke-linejoin="round"/>
  </symbol>
  <symbol id='icon-long-arrow' viewBox="0 0 38 38" fill="none" xmlns="http://www.w3.org/2000/svg">
    <path d="M35 3L3 35M3 35H28.6M3 35V9.4" stroke="#FAF1E6" stroke-width="6" stroke-linecap="round" stroke-linejoin="round"/>
  </symbol>
  <symbol id='icon-arrow-left' viewBox="0 0 24 24" fill="none" xmlns="http://www.w3.org/2000/svg">
    <path id="Vector" d="M13 15L10 12L13 9" stroke-width="2" stroke-linecap="round" stroke-linejoin="round"/>
  </symbol>
  <symbol id='icon-x' viewBox="0 0 24 24" xmlns="http://www.w3.org/2000/svg">
    <path d="M9 9.01953L11.9999 12.0195M11.9999 12.0195L14.9999 15.0194M11.9999 12.0195L9 15.0194M11.9999 12.0195L14.9999 9.01953" stroke-width="2" stroke-linecap="round" stroke-linejoin="round"/>
  </symbol>
  <symbol id='icon-x-blue' viewBox="0 0 24 24" fill="none" xmlns="http://www.w3.org/2000/svg">
    <path d="M9 9.01953L11.9999 12.0195M11.9999 12.0195L14.9999 15.0194M11.9999 12.0195L9 15.0194M11.9999 12.0195L14.9999 9.01953" stroke="#274898" stroke-width="2" stroke-linecap="round" stroke-linejoin="round"/>
  </symbol>
  <symbol id='icon-warning' viewBox="0 0 60 60" fill="none" xmlns="http://www.w3.org/2000/svg">
    <path d="M30 19.6464V31.3131M30 56.25C15.5025 56.25 3.75 44.4975 3.75 30C3.75 15.5025 15.5025 3.75 30 3.75C44.4975 3.75 56.25 15.5025 56.25 30C56.25 44.4975 44.4975 56.25 30 56.25ZM30.1453 40.0631V40.3547L29.8547 40.3536V40.0631H30.1453Z" stroke="#FAF1E6" stroke-width="5.83333" stroke-linecap="round" stroke-linejoin="round"/>
  </symbol>
  <symbol id='icon-download' viewBox="0 0 24 24" fill="none" xmlns="http://www.w3.org/2000/svg">
    <path d="M6 21H18M12 3V17M12 17L17 12M12 17L7 12" stroke-width="2" stroke-linecap="round" stroke-linejoin="round"/>
  </symbol>
  <symbol id='icon-phone' viewBox="0 0 58 58" fill="none" xmlns="http://www.w3.org/2000/svg">
    <path d="M21.7155 6.41689C20.8296 4.20221 18.6847 2.75 16.2994 2.75H8.27632C5.22422 2.75 2.75 5.22362 2.75 8.27572C2.75 34.2186 23.7814 55.25 49.7243 55.25C52.7764 55.25 55.25 52.7755 55.25 49.7234L55.2513 41.699C55.2513 39.3138 53.7995 37.1692 51.5848 36.2833L43.8952 33.2086C41.9058 32.4128 39.6408 32.7709 37.9948 34.1426L36.0103 35.7978C33.6925 37.7293 30.2823 37.5756 28.1489 35.4423L22.5606 29.8489C20.4273 27.7156 20.2696 24.3081 22.2011 21.9903L23.856 20.0059C25.2276 18.3599 25.5889 16.0942 24.7932 14.1048L21.7155 6.41689Z" stroke-width="5" stroke-linecap="round" stroke-linejoin="round"/>
  </symbol>
  <symbol id='icon-mail' viewBox="0 0 58 46" fill="none" xmlns="http://www.w3.org/2000/svg">
    <path d="M5.66667 5.50016L23.4806 18.9526L23.4865 18.9575C25.4646 20.4081 26.4542 21.1338 27.538 21.4141C28.4961 21.6619 29.5031 21.6619 30.4612 21.4141C31.546 21.1335 32.5385 20.4057 34.52 18.9526C34.52 18.9526 45.9461 10.1842 52.3333 5.50016M2.75 34.0841V11.9174C2.75 8.65043 2.75 7.01572 3.3858 5.7679C3.94506 4.67029 4.8368 3.77855 5.93441 3.21929C7.18223 2.5835 8.81693 2.5835 12.0839 2.5835H45.9172C49.1842 2.5835 50.8154 2.5835 52.0632 3.21929C53.1609 3.77855 54.0556 4.67029 54.6148 5.7679C55.25 7.0145 55.25 8.64723 55.25 11.9078V34.0939C55.25 37.3545 55.25 38.9849 54.6148 40.2315C54.0556 41.3291 53.1609 42.2224 52.0632 42.7817C50.8166 43.4168 49.1863 43.4168 45.9257 43.4168H12.0743C8.81373 43.4168 7.18101 43.4168 5.93441 42.7817C4.8368 42.2224 3.94506 41.3291 3.3858 40.2315C2.75 38.9837 2.75 37.351 2.75 34.0841Z" stroke-width="5" stroke-linecap="round" stroke-linejoin="round"/>
  </symbol>
  <symbol id='icon-check' viewBox="0 0 24 24" fill="none" xmlns="http://www.w3.org/2000/svg">
    <path d="M4 12.0005L8.94975 16.9502L19.5572 6.34375" stroke="#6F9928" stroke-width="2" stroke-linecap="round" stroke-linejoin="round"/>
  </symbol>
  <symbol id='icon-menu' viewBox="0 0 24 24" xmlns="http://www.w3.org/2000/svg">
    <path d="M5 17H13M5 12H19M5 7H13" stroke="#E6EAFA" stroke-width="2" stroke-linecap="round" stroke-linejoin="round"/>
  </symbol>
  <symbol id='icon-direction' viewBox="0 0 14 14" xmlns="http://www.w3.org/2000/svg">
    <path fill-rule="evenodd" clip-rule="evenodd" d="M7 7L0 0L0 14L7 7Z"/>
    <path fill-rule="evenodd" clip-rule="evenodd" d="M14 7L7 0L7 14L14 7Z"/>
  </symbol>
  <symbol id='icon-arrow-up' viewBox="0 0 16 22" xmlns="http://www.w3.org/2000/svg">
    <path d="M15.3 7.5L15.3 9.84L9.27 3.81L8.64 3.81L8.64 21.42L6.96 21.42L6.96 3.81L6.33 3.81L0.299997 9.84L0.299997 7.5L7.8 8.91712e-07L15.3 7.5Z"/>
  </symbol>
  <symbol id='icon-burger' viewBox="0 0 29 6" xmlns="http://www.w3.org/2000/svg">
    <line x1="29" y1="0.5" x2="7" y2="0.499998"/>
    <line x1="29" y1="5.5" x2="-4.37114e-08" y2="5.5"/>
  </symbol>
</svg>