<svg width="200" height="28" viewBox="0 0 200 28" fill="none" xmlns="http://www.w3.org/2000/svg">
<path d="M14.4696 11.9991L11.0017 4.97135L7.50324 11.9991H14.4696ZM19.5638 22.2185L15.4518 13.9633H6.5213L2.43987 22.2185H0.322266L11.0326 0.674988H11.094L21.8043 22.2185H19.5638ZM26.6225 22.2185H24.566V1.16594H26.6225V10.9249L35.1229 1.16594H37.67L29.1387 11.0172L38.7748 22.2185H36.0437L26.6225 11.2933V22.2185ZM48.7484 17.7072C49.1984 18.5868 49.8377 19.3133 50.6665 19.886C51.4949 20.4589 52.4617 20.7453 53.5666 20.7453C54.2007 20.7453 54.7888 20.6481 55.3309 20.4538C55.873 20.2595 56.3386 19.9937 56.7275 19.6559C57.1159 19.3181 57.4228 18.9144 57.648 18.4437C57.8732 17.9733 57.9855 17.4617 57.9855 16.9093C57.9855 16.1114 57.8117 15.4619 57.464 14.9606C57.1159 14.4594 56.6609 14.0399 56.0982 13.7024C55.5358 13.3649 54.8911 13.0734 54.165 12.8276C53.4385 12.5824 52.7069 12.3161 51.9708 12.03C51.4798 11.8457 50.9731 11.6105 50.4516 11.3239C49.9298 11.0378 49.4594 10.6743 49.0399 10.2348C48.6203 9.79497 48.2777 9.268 48.0119 8.65415C47.7458 8.0406 47.613 7.31414 47.613 6.47509C47.613 5.63665 47.7716 4.86419 48.0885 4.15832C48.4057 3.45245 48.8507 2.8386 49.4237 2.31707C49.9963 1.79523 50.6713 1.39115 51.449 1.10481C52.2263 0.818467 53.0753 0.674988 53.9961 0.674988C55.2852 0.674988 56.3949 0.941054 57.3256 1.47318C58.2567 2.005 59.0186 2.61855 59.6121 3.31443L58.1084 4.91019C57.6789 4.27606 57.1159 3.73881 56.4206 3.299C55.725 2.85919 54.9065 2.63915 53.9655 2.63915C52.6969 2.63915 51.6893 3.00751 50.9425 3.74425C50.1958 4.48039 49.8223 5.41146 49.8223 6.53655C49.8223 7.17098 49.9555 7.70793 50.2212 8.14774C50.4873 8.58754 50.8248 8.96078 51.234 9.26801C51.6433 9.57493 52.0985 9.83039 52.5998 10.0353C53.101 10.2396 53.5971 10.4237 54.0881 10.5877C54.7225 10.8126 55.4026 11.0684 56.1288 11.3547C56.8549 11.6411 57.5148 12.0197 58.1084 12.4904C58.7016 12.9608 59.1977 13.5489 59.5967 14.2548C59.9956 14.9607 60.1951 15.8354 60.1951 16.8788C60.1951 17.6355 60.0519 18.3668 59.7656 19.073C59.4789 19.7785 59.0546 20.3975 58.4919 20.9293C57.9295 21.4615 57.2336 21.891 56.4051 22.2185C55.5767 22.5457 54.6302 22.7094 53.5666 22.7094C53.1776 22.7094 52.7172 22.6734 52.1854 22.602C51.6536 22.5306 51.0963 22.3668 50.5127 22.111C49.9297 21.8553 49.3468 21.4872 48.7638 21.0062C48.1808 20.5256 47.6436 19.876 47.1526 19.0575L48.7484 17.7072ZM62.8034 22.2185V0.368369H64.6755V8.74617H64.7369C65.1053 8.23462 65.5145 7.82568 65.9646 7.51845C66.4147 7.21183 66.8594 6.97635 67.2995 6.8129C67.7393 6.64914 68.1637 6.54684 68.5729 6.50598C68.9821 6.46512 69.3402 6.44453 69.6468 6.44453C70.3633 6.44453 71.0434 6.55713 71.6879 6.78233C72.3323 7.00723 72.9001 7.33442 73.3911 7.76423C73.882 8.19375 74.2758 8.73073 74.5725 9.37545C74.8691 10.0199 75.0174 10.7615 75.0174 11.6002V22.2185H73.1453V12.1832C73.1453 11.3647 73.0179 10.6949 72.7618 10.173C72.5063 9.65149 72.1891 9.24227 71.8104 8.94563C71.4321 8.649 71.0177 8.44437 70.5676 8.33207C70.1175 8.21917 69.698 8.1632 69.3096 8.1632C68.6546 8.1632 68.0459 8.27578 67.4835 8.50068C66.9208 8.72588 66.4299 9.03764 66.0103 9.43658C65.5908 9.83583 65.2639 10.3114 65.0284 10.8635C64.7932 11.4162 64.6755 12.0094 64.6755 12.6436V22.2185H62.8034ZM81.339 1.59576L79.9273 3.19185L78.5159 1.59576L79.9273 0L81.339 1.59576ZM79.0071 22.2185V6.8129H80.8786V22.2185H79.0071ZM92.8778 8.1632C91.9776 8.1632 91.1492 8.34237 90.3922 8.70014C89.6351 9.05822 88.9855 9.53406 88.4434 10.1273C87.901 10.7206 87.4767 11.4059 87.1697 12.1832C86.8631 12.9608 86.7094 13.7686 86.7094 14.6077C86.7094 15.5285 86.8885 16.3721 87.2466 17.1397C87.6047 17.9067 88.0802 18.5666 88.6735 19.1187C89.2671 19.6711 89.9472 20.1009 90.7142 20.4078C91.4815 20.7147 92.2643 20.8682 93.0622 20.8682C93.8803 20.8682 94.6525 20.7199 95.3789 20.4232C96.1051 20.1266 96.7395 19.7023 97.2816 19.1495C97.8237 18.5971 98.2535 17.9373 98.5704 17.1703C98.8877 16.4029 99.0463 15.5488 99.0463 14.6077C99.0463 13.6461 98.8928 12.7716 98.5859 11.9837C98.279 11.1964 97.8546 10.516 97.3125 9.943C96.7704 9.37001 96.1208 8.93021 95.3635 8.62358C94.6068 8.31666 93.778 8.1632 92.8778 8.1632ZM86.7094 6.8129V9.943H86.8322C87.5484 8.77704 88.428 7.90225 89.4714 7.31928C90.5147 6.736 91.7016 6.44453 93.0313 6.44453C94.2384 6.44453 95.3329 6.64915 96.3148 7.05839C97.2971 7.46732 98.1306 8.03515 98.8162 8.7616C99.5012 9.48774 100.033 10.3419 100.412 11.3239C100.79 12.3061 100.98 13.37 100.98 14.5157C100.98 15.7022 100.775 16.7868 100.366 17.7687C99.9568 18.7509 99.3992 19.5996 98.6934 20.3158C97.9875 21.0316 97.1642 21.5892 96.2228 21.9885C95.2818 22.3874 94.269 22.5866 93.1847 22.5866C92.6323 22.5866 92.0648 22.5306 91.4815 22.418C90.8985 22.3054 90.3256 22.1213 89.7629 21.8655C89.2005 21.6098 88.6632 21.2823 88.1516 20.8833C87.6404 20.4847 87.1903 19.9883 86.8017 19.395H86.7094V27.9571H84.8375V6.8129H86.7094ZM111.475 8.1632C110.616 8.1632 109.807 8.31666 109.05 8.62358C108.294 8.93021 107.634 9.37001 107.071 9.943C106.509 10.516 106.059 11.1964 105.721 11.9837C105.383 12.7716 105.215 13.6358 105.215 14.5771C105.215 15.3136 105.358 16.0603 105.644 16.8173C105.931 17.574 106.335 18.2496 106.856 18.8426C107.378 19.4359 108.013 19.922 108.759 20.3004C109.506 20.6787 110.34 20.8682 111.26 20.8682C112.283 20.8682 113.178 20.6687 113.945 20.2695C114.713 19.8706 115.352 19.3644 115.863 18.7509C116.375 18.1367 116.759 17.4515 117.014 16.6944C117.27 15.9377 117.398 15.1907 117.398 14.4543C117.398 13.6155 117.25 12.8173 116.953 12.0606C116.656 11.3036 116.247 10.6334 115.725 10.0504C115.204 9.46747 114.58 9.00708 113.853 8.66928C113.127 8.33209 112.334 8.1632 111.475 8.1632ZM105.153 9.78952L105.245 9.75896C105.654 9.10425 106.12 8.56212 106.642 8.1326C107.163 7.70279 107.705 7.36529 108.268 7.11981C108.831 6.87433 109.388 6.7003 109.941 6.5983C110.493 6.49568 111.004 6.44453 111.475 6.44453C112.621 6.44453 113.674 6.65943 114.636 7.08925C115.598 7.51846 116.426 8.10175 117.122 8.83818C117.817 9.57493 118.36 10.4188 118.748 11.3701C119.137 12.3215 119.331 13.3186 119.331 14.3622C119.331 15.5285 119.121 16.6127 118.702 17.6152C118.283 18.6174 117.705 19.487 116.968 20.2238C116.232 20.9602 115.372 21.5383 114.39 21.9576C113.408 22.3771 112.355 22.5866 111.229 22.5866C110.207 22.5866 109.219 22.4025 108.268 22.0342C107.317 21.6661 106.473 21.1085 105.736 20.3615C105 19.6151 104.407 18.6686 103.956 17.5232C103.506 16.3775 103.281 15.0272 103.281 13.4723V0.368369H105.153V9.78952ZM129.673 8.50068C129.264 8.3575 128.834 8.28578 128.384 8.28578C127.73 8.28578 127.111 8.44438 126.528 8.7616C125.945 9.07851 125.423 9.51347 124.962 10.0659C124.502 10.6183 124.139 11.2627 123.873 11.9991C123.607 12.7356 123.474 13.5235 123.474 14.3622V22.2185H121.602V6.8129H123.382V10.0659H123.474C123.883 8.83817 124.609 7.89227 125.653 7.22696C126.697 6.56226 127.893 6.22993 129.244 6.22993C129.407 6.22993 129.566 6.23477 129.719 6.24506C129.873 6.25535 130.031 6.27078 130.195 6.29106L129.673 8.50068ZM132.865 14.5157C132.865 15.375 133.029 16.1932 133.356 16.9708C133.683 17.7481 134.123 18.4234 134.675 18.9961C135.228 19.5688 135.872 20.0243 136.609 20.3615C137.345 20.6993 138.133 20.8682 138.972 20.8682C139.831 20.8682 140.629 20.6993 141.366 20.3615C142.102 20.0243 142.747 19.5639 143.299 18.9809C143.851 18.3977 144.286 17.7227 144.603 16.9554C144.92 16.1883 145.079 15.375 145.079 14.5157C145.079 13.6563 144.92 12.8379 144.603 12.0606C144.286 11.283 143.851 10.608 143.299 10.0353C142.747 9.46202 142.097 9.00708 141.35 8.66928C140.603 8.33209 139.811 8.1632 138.972 8.1632C138.133 8.1632 137.345 8.33209 136.609 8.66928C135.872 9.00708 135.228 9.46202 134.675 10.0353C134.123 10.608 133.683 11.2782 133.356 12.0452C133.029 12.8125 132.865 13.6358 132.865 14.5157ZM130.931 14.5157C130.931 13.3906 131.141 12.3366 131.56 11.3547C131.98 10.3725 132.558 9.5186 133.294 8.79246C134.031 8.06601 134.885 7.49304 135.857 7.07382C136.829 6.65429 137.867 6.44453 138.972 6.44453C140.077 6.44453 141.115 6.65429 142.087 7.07382C143.059 7.49304 143.912 8.06601 144.649 8.79246C145.386 9.5186 145.964 10.3725 146.383 11.3547C146.803 12.3366 147.012 13.3906 147.012 14.5157C147.012 15.6205 146.803 16.6639 146.383 17.6458C145.964 18.6277 145.391 19.487 144.664 20.2238C143.938 20.9602 143.084 21.5383 142.102 21.9576C141.12 22.3771 140.077 22.5866 138.972 22.5866C137.867 22.5866 136.824 22.3771 135.842 21.9576C134.86 21.5383 134.005 20.9602 133.279 20.2238C132.553 19.487 131.98 18.6277 131.56 17.6458C131.141 16.6639 130.931 15.6205 130.931 14.5157ZM157.661 6.8129H159.779L153.119 14.3622L161.252 22.2185H158.797L151.186 14.7303V22.2185H149.314V0.368369H151.186V14.3008L157.661 6.8129ZM170.243 20.8682C171.287 20.8682 172.248 20.6176 173.128 20.1163C174.007 19.6151 174.724 18.9449 175.276 18.1062H177.455C177.128 18.7609 176.713 19.3644 176.212 19.9168C175.711 20.4693 175.153 20.9451 174.54 21.3437C173.926 21.7427 173.256 22.0496 172.529 22.2642C171.803 22.4794 171.041 22.5866 170.243 22.5866C169.138 22.5866 168.095 22.3771 167.113 21.9576C166.131 21.5383 165.277 20.9602 164.55 20.2238C163.824 19.487 163.251 18.6277 162.832 17.6458C162.413 16.6639 162.203 15.6205 162.203 14.5157C162.203 13.3906 162.397 12.3366 162.786 11.3547C163.175 10.3725 163.717 9.5186 164.412 8.79246C165.108 8.06601 165.926 7.49304 166.867 7.07382C167.808 6.65429 168.832 6.44453 169.936 6.44453C171.184 6.44453 172.299 6.65429 173.281 7.07382C174.264 7.49304 175.092 8.06601 175.767 8.79246C176.442 9.5186 176.954 10.3725 177.302 11.3547C177.649 12.3366 177.823 13.3906 177.823 14.5157H164.136C164.136 15.375 164.3 16.1932 164.627 16.9708C164.955 17.7481 165.394 18.4234 165.947 18.9961C166.499 19.5688 167.144 20.0243 167.88 20.3615C168.617 20.6993 169.405 20.8682 170.243 20.8682ZM175.675 12.797C175.573 12.1269 175.363 11.5133 175.046 10.9506C174.729 10.3931 174.325 9.90728 173.834 9.48775C173.343 9.07367 172.765 8.74615 172.1 8.51611C171.435 8.28092 170.714 8.1632 169.936 8.1632C169.241 8.1632 168.591 8.28092 167.988 8.51611C167.384 8.74615 166.847 9.07367 166.376 9.48775C165.906 9.90728 165.497 10.3931 165.149 10.9506C164.801 11.5133 164.535 12.1269 164.351 12.797H175.675ZM188.196 8.50068C187.787 8.3575 187.357 8.28578 186.907 8.28578C186.252 8.28578 185.633 8.44438 185.05 8.7616C184.467 9.07851 183.945 9.51347 183.485 10.0659C183.025 10.6183 182.662 11.2627 182.396 11.9991C182.13 12.7356 181.997 13.5235 181.997 14.3622V22.2185H180.125V6.8129H181.905V10.0659H181.997C182.406 8.83817 183.132 7.89227 184.176 7.22696C185.219 6.56226 186.416 6.22993 187.766 6.22993C187.93 6.22993 188.089 6.23477 188.242 6.24506C188.395 6.25535 188.554 6.27078 188.717 6.29106L188.196 8.50068ZM198.384 9.66694C198.037 9.33943 197.684 9.07367 197.326 8.86875C196.968 8.66443 196.63 8.51097 196.313 8.40866C195.996 8.30635 195.694 8.23976 195.408 8.20919C195.121 8.17832 194.876 8.1632 194.671 8.1632C194.119 8.1632 193.648 8.23977 193.26 8.39323C192.871 8.54669 192.559 8.741 192.323 8.97649C192.088 9.21138 191.914 9.4829 191.802 9.78952C191.689 10.0964 191.633 10.4034 191.633 10.7103C191.633 11.283 191.756 11.7331 192.001 12.0606C192.247 12.3878 192.569 12.6539 192.968 12.8582C193.367 13.0631 193.817 13.2266 194.318 13.3494C194.819 13.4723 195.326 13.6052 195.837 13.7484C196.206 13.8507 196.615 13.9939 197.065 14.1779C197.515 14.3622 197.934 14.618 198.323 14.9452C198.712 15.2724 199.034 15.6816 199.29 16.1726C199.546 16.6639 199.673 17.2777 199.673 18.0141C199.673 18.7097 199.54 19.3387 199.274 19.9014C199.009 20.4641 198.635 20.9451 198.154 21.3437C197.673 21.7427 197.096 22.0496 196.42 22.2642C195.745 22.4794 195.009 22.5866 194.211 22.5866C193.924 22.5866 193.597 22.5611 193.229 22.51C192.861 22.4588 192.461 22.3462 192.032 22.1725C191.602 21.9984 191.157 21.7581 190.697 21.4512C190.237 21.1443 189.782 20.7353 189.331 20.2238L190.559 18.9041C190.723 19.1087 190.922 19.3284 191.157 19.5639C191.393 19.7991 191.664 20.014 191.971 20.2083C192.277 20.4027 192.63 20.5613 193.029 20.6842C193.429 20.8067 193.863 20.8682 194.334 20.8682C195.254 20.8682 196.052 20.6279 196.727 20.1469C197.402 19.6662 197.74 18.9858 197.74 18.1062C197.74 17.5538 197.622 17.0985 197.387 16.7404C197.152 16.3824 196.84 16.0909 196.451 15.866C196.063 15.6408 195.617 15.4567 195.116 15.3136C194.615 15.1701 194.098 15.0169 193.566 14.8532C193.219 14.7509 192.825 14.6128 192.385 14.4388C191.945 14.2651 191.531 14.0144 191.142 13.6869C190.753 13.3597 190.426 12.9453 190.16 12.4441C189.894 11.9428 189.761 11.3238 189.761 10.5877C189.761 10.0965 189.858 9.60549 190.053 9.11454C190.247 8.62358 190.544 8.1783 190.943 7.77966C191.342 7.38072 191.843 7.05838 192.446 6.8129C193.05 6.56742 193.771 6.44453 194.61 6.44453C195.367 6.44453 196.155 6.56742 196.973 6.8129C197.791 7.05838 198.61 7.54934 199.428 8.28578L198.384 9.66694Z" fill="#252525"/>
</svg>
