<svg width="132" height="10" viewBox="0 0 132 10" fill="none" xmlns="http://www.w3.org/2000/svg">
<path d="M5.99365 0.858013V7.69875H5.34045V6.77435C5.17155 6.99379 5.02685 7.15755 4.90336 7.26985C4.78168 7.38033 4.63518 7.4796 4.46325 7.56556C4.12363 7.73295 3.7486 7.81711 3.33574 7.81711C2.51364 7.81711 1.79566 7.46962 1.1803 6.77435C0.807994 6.36511 0.623047 5.82572 0.623047 5.15647C0.623047 4.68368 0.743213 4.24477 0.98506 3.83887C1.22539 3.43266 1.55382 3.11122 1.96971 2.87724C2.3856 2.64145 2.84024 2.5246 3.33574 2.5246C3.92537 2.5246 4.43905 2.69863 4.8725 3.04461C5.00084 3.13572 5.14552 3.29465 5.3114 3.52045V0.858013H5.99365ZM5.32106 5.17584C5.32106 4.81049 5.23178 4.4742 5.05441 4.16697C4.87582 3.86005 4.63398 3.6179 4.32524 3.44416C4.01347 3.26709 3.67202 3.17751 3.30183 3.17751C2.94254 3.17751 2.60809 3.26709 2.30086 3.44416C1.99243 3.62123 1.75058 3.86338 1.57169 4.16697C1.39462 4.46906 1.30501 4.799 1.30501 5.15647C1.30501 5.51546 1.3946 5.84843 1.57501 6.15868C1.75359 6.46712 1.99876 6.71077 2.31053 6.88815C2.61776 7.07158 2.95225 7.1642 3.30973 7.1642C3.66902 7.1642 4.00347 7.0749 4.3104 6.89601C4.61914 6.71591 4.86463 6.47377 5.04654 6.16684C5.22997 5.86143 5.32106 5.5318 5.32106 5.17584ZM7.16143 7.70026V2.63175H7.80464V3.35971C7.90059 3.18264 7.9947 3.04947 8.09065 2.96169C8.20749 2.84455 8.34736 2.75072 8.50839 2.68049C8.6903 2.6027 8.94697 2.55063 9.27811 2.5246V3.2005C8.98753 3.23138 8.75022 3.29947 8.5668 3.40511C8.2971 3.57553 8.09885 3.7868 7.97233 4.03712C7.88606 4.19966 7.84369 4.47572 7.84369 4.86558V7.70026H7.16143ZM13.5215 2.63175H14.2492L11.3185 9.47433H10.5957L11.3948 7.54286L9.45337 2.63175H10.1862L11.8043 6.67686L13.5215 2.63175ZM21.7573 6.21709H22.5192C22.3942 6.45289 22.2904 6.62965 22.2074 6.7483C22.123 6.86696 22.0188 6.9841 21.8956 7.09761C21.3856 7.57676 20.7681 7.81711 20.0453 7.81711C19.5368 7.81711 19.0722 7.70208 18.6514 7.46961C18.2292 7.23563 17.8959 6.91568 17.6508 6.5128C17.4071 6.1066 17.2854 5.66165 17.2854 5.17584C17.2854 4.69335 17.4071 4.24992 17.6523 3.84371C17.8959 3.43781 18.2292 3.11607 18.6514 2.88209C19.0722 2.64327 19.5302 2.5246 20.0257 2.5246C20.799 2.5246 21.4571 2.80096 21.9995 3.35306C22.1911 3.5498 22.3666 3.82251 22.5273 4.17212H21.7573C21.6081 3.956 21.4586 3.78529 21.309 3.65847C20.9322 3.33852 20.5 3.17751 20.0145 3.17751C19.6409 3.17751 19.2965 3.26709 18.9814 3.44416C18.6675 3.6179 18.419 3.85826 18.2389 4.16216C18.0582 4.46757 17.9674 4.799 17.9674 5.15647C17.9674 5.53181 18.057 5.87111 18.2337 6.17985C18.4126 6.48375 18.6578 6.72562 18.9717 6.90269C19.2835 7.07643 19.6276 7.1642 20.0048 7.1642C20.3441 7.1642 20.6592 7.09277 20.9485 6.9499C21.1093 6.86696 21.2458 6.77767 21.3578 6.67869C21.4683 6.5779 21.6014 6.42353 21.7573 6.21709ZM28.6323 2.63175V7.69875H27.9694V6.74496C27.8459 6.95775 27.7063 7.13666 27.5502 7.28285C27.1343 7.63851 26.6224 7.81711 26.0134 7.81711C25.6072 7.81711 25.1946 7.7166 24.7754 7.51501C24.3565 7.31373 24.0251 7.05705 23.7814 6.7468C23.6285 6.54702 23.5069 6.30487 23.4158 6.02035C23.3265 5.73612 23.2811 5.45191 23.2811 5.16617C23.2811 4.69004 23.403 4.24992 23.6452 3.84371C23.8889 3.43781 24.2185 3.11607 24.6374 2.88209C25.0533 2.64327 25.5052 2.5246 25.994 2.5246C26.2995 2.5246 26.587 2.57183 26.8582 2.66778C27.1297 2.76343 27.3637 2.90175 27.5599 3.08185C27.7127 3.21503 27.8492 3.38907 27.9694 3.60186V2.63175H28.6323ZM26.0316 3.17751C25.6496 3.17751 25.3003 3.26708 24.9837 3.44567C24.6649 3.62607 24.4167 3.86974 24.2348 4.17667C24.0541 4.4839 23.9633 4.82018 23.9633 5.18583C23.9633 5.53967 24.0559 5.8693 24.2394 6.17169C24.4231 6.47559 24.6719 6.71591 24.9852 6.89601C25.2988 7.0749 25.6369 7.1642 26.0022 7.1642C26.3512 7.1642 26.6778 7.0749 26.9817 6.89601C27.2838 6.71591 27.5244 6.47559 27.703 6.17169C27.8801 5.8693 27.9694 5.53967 27.9694 5.18583C27.9694 4.82987 27.8816 4.49692 27.7079 4.18637C27.5323 3.8746 27.2968 3.62941 26.9981 3.44901C26.699 3.26861 26.3776 3.17751 26.0316 3.17751ZM29.8018 7.70026V2.63175H30.4451V3.35971C30.541 3.18264 30.6352 3.04947 30.7311 2.96169C30.8479 2.84455 30.9878 2.75072 31.1485 2.68049C31.3304 2.6027 31.5874 2.55063 31.9186 2.5246V3.2005C31.628 3.23138 31.3906 3.29947 31.2069 3.40511C30.9375 3.57553 30.7393 3.7868 30.6125 4.03712C30.5265 4.19966 30.4841 4.47572 30.4841 4.86558V7.70026H29.8018ZM37.6496 2.63175V6.97562C37.6496 7.35428 37.6336 7.64032 37.6027 7.83677C37.5506 8.1894 37.3721 8.53024 37.0648 8.86017C36.8993 9.03543 36.7092 9.18344 36.4964 9.30542C36.2818 9.4271 36.0526 9.51972 35.8078 9.58328C35.5641 9.64624 35.3153 9.67894 35.0653 9.67894C34.6751 9.67894 34.3016 9.59448 33.9441 9.42709C33.5867 9.2597 33.2846 9.02572 33.0376 8.72364C32.8478 8.48966 32.6949 8.1876 32.5811 7.81711H33.2407C33.4408 8.15521 33.629 8.4022 33.8079 8.55657C34.1666 8.87015 34.6004 9.02573 35.1089 9.02573C35.4682 9.02573 35.7963 8.94612 36.095 8.78873C36.3941 8.62951 36.6214 8.41672 36.7773 8.14702C36.8666 7.98781 36.9253 7.83013 36.9528 7.67455C36.9822 7.51685 36.9964 7.28619 36.9964 6.97745L37.0016 6.69805C36.8829 6.93203 36.7661 7.10426 36.6492 7.21141C36.4558 7.40301 36.2137 7.55105 35.928 7.6582C35.6401 7.76384 35.3413 7.81711 35.0293 7.81711C34.5534 7.81711 34.113 7.70025 33.7086 7.46476C33.3024 7.23079 32.9843 6.91265 32.7485 6.5128C32.513 6.10993 32.3962 5.67469 32.3962 5.20522C32.3962 4.82988 32.461 4.48057 32.5896 4.15397C32.7177 3.82918 32.8981 3.54467 33.132 3.301C33.366 3.05583 33.6405 2.86423 33.959 2.72439C34.2725 2.59121 34.6103 2.5246 34.9727 2.5246C35.6077 2.5246 36.1437 2.71319 36.5823 3.09155C36.7252 3.21807 36.8651 3.39542 37.0016 3.61971V2.63175H37.6496ZM34.9984 3.17751C34.6461 3.17751 34.3228 3.26557 34.0271 3.43931C33.7313 3.60973 33.4992 3.84704 33.3318 4.14761C33.1629 4.4497 33.0781 4.77962 33.0781 5.13679C33.0781 5.51878 33.1629 5.86295 33.3318 6.17018C33.5025 6.48044 33.7377 6.72562 34.0368 6.90269C34.3358 7.07643 34.6688 7.1642 35.0374 7.1642C35.3964 7.1642 35.7248 7.07492 36.0236 6.89784C36.3226 6.72077 36.56 6.4768 36.7334 6.17018C36.9026 5.86295 36.9867 5.52515 36.9867 5.15647C36.9867 4.80384 36.8975 4.47571 36.7207 4.17212C36.5418 3.86792 36.2997 3.62607 35.9927 3.44567C35.6858 3.26708 35.3559 3.17751 34.9984 3.17751ZM41.2301 2.5246C41.7111 2.5246 42.1576 2.64327 42.5686 2.88209C42.9797 3.11909 43.3063 3.44116 43.5466 3.84555C43.7884 4.24994 43.9086 4.68701 43.9086 5.15647C43.9086 5.6323 43.7903 6.07575 43.5514 6.48528C43.3144 6.89452 42.9927 7.21807 42.5898 7.45841C42.1869 7.69693 41.7498 7.81711 41.2771 7.81711C40.8079 7.81711 40.3675 7.69874 39.9579 7.45992C39.5487 7.22896 39.2254 6.91084 38.9848 6.50645C38.7463 6.10176 38.6261 5.66469 38.6261 5.19552C38.6261 4.72242 38.7445 4.2808 38.9833 3.87126C39.2173 3.4587 39.5357 3.13211 39.9355 2.88844C40.3348 2.6466 40.7655 2.5246 41.2301 2.5246ZM41.2771 3.17751C40.905 3.19052 40.5706 3.28678 40.2718 3.46869C39.9694 3.64546 39.7336 3.8861 39.5632 4.19151C39.3928 4.49541 39.3081 4.82987 39.3081 5.19552C39.3081 5.553 39.3961 5.88261 39.5699 6.1847C39.7485 6.48829 39.9888 6.72895 40.2927 6.90269C40.5966 7.07643 40.9281 7.1642 41.287 7.1642C41.6457 7.1642 41.9741 7.07492 42.2729 6.89784C42.5686 6.71744 42.8008 6.47044 42.9715 6.16049C43.1422 5.84993 43.2263 5.50548 43.2263 5.12863C43.2263 4.78599 43.1404 4.46454 42.9667 4.16216C42.7926 3.86159 42.5589 3.62123 42.2632 3.44416C41.9675 3.26709 41.6527 3.17751 41.3146 3.17751H41.2771ZM52.4408 3.2559H53.2057L51.9404 5.67468L53.6673 7.35944L53.1781 7.81711L51.6138 6.2982C51.4773 6.55186 51.3568 6.75013 51.2563 6.893C51.1555 7.03587 51.0354 7.16905 50.8992 7.29255C50.5223 7.64185 50.0641 7.81711 49.5247 7.81711C49.1415 7.81711 48.7855 7.72327 48.4574 7.53621C48.129 7.34945 47.8693 7.09457 47.6777 6.77251C47.4861 6.44924 47.3901 6.09691 47.3901 5.71189C47.3901 5.22941 47.5657 4.79567 47.918 4.40732C48.053 4.25477 48.1907 4.12795 48.3309 4.02745C48.4704 3.92515 48.6702 3.80496 48.9287 3.66482C48.7171 3.45203 48.5597 3.26044 48.4556 3.08821C48.2915 2.84152 48.2089 2.56545 48.2089 2.26004C48.2089 1.99004 48.2818 1.74005 48.4298 1.51122C48.5776 1.28026 48.7758 1.09531 49.0259 0.956977C49.2759 0.818952 49.5441 0.750565 49.8301 0.750565C50.0511 0.750565 50.2638 0.792924 50.4636 0.877374C50.6652 0.960311 50.8438 1.07715 50.9997 1.22668C51.154 1.3762 51.2757 1.54661 51.3653 1.74154C51.4513 1.93163 51.4937 2.13294 51.4937 2.34603C51.4937 2.74558 51.3393 3.09003 51.029 3.3794C50.9104 3.4929 50.7917 3.58705 50.6701 3.6603C50.5481 3.73325 50.3743 3.81616 50.15 3.90727L51.4464 5.18402L52.4408 3.2559ZM49.4578 4.18817L49.1672 4.34557C48.8149 4.53263 48.5646 4.70972 48.415 4.87347C48.1862 5.13197 48.0724 5.41952 48.0724 5.74128C48.0724 6.00098 48.136 6.23978 48.2625 6.45741C48.3893 6.67534 48.5597 6.84758 48.7743 6.9744C48.9886 7.10093 49.2226 7.1642 49.4778 7.1642C49.8513 7.1642 50.1649 7.04404 50.4149 6.80189C50.5481 6.68506 50.6567 6.56307 50.743 6.43625C50.8289 6.30821 50.9494 6.09694 51.1053 5.79788L49.4578 4.18817ZM49.6433 3.4036C49.8725 3.31764 50.0414 3.24439 50.1515 3.18416C50.2605 3.12422 50.3743 3.03948 50.493 2.93264C50.7058 2.74739 50.8111 2.53127 50.8111 2.27943C50.8111 2.04546 50.7139 1.84084 50.519 1.66528C50.3223 1.49154 50.0931 1.40374 49.8301 1.40374C49.5686 1.40374 49.3476 1.48821 49.1657 1.65892C48.982 1.82752 48.8912 2.03243 48.8912 2.26974C48.8912 2.45165 48.9529 2.63025 49.0764 2.80914C49.2078 2.97622 49.3963 3.17447 49.6433 3.4036ZM57.0232 7.70026V2.63175H57.6667V3.35971C57.7626 3.18264 57.8568 3.04947 57.9527 2.96169C58.0696 2.84455 58.2094 2.75072 58.3701 2.68049C58.552 2.6027 58.8087 2.55063 59.1401 2.5246V3.2005C58.8496 3.23138 58.6123 3.29947 58.4285 3.40511C58.1591 3.57553 57.9606 3.7868 57.8341 4.03712C57.7478 4.19966 57.7057 4.47572 57.7057 4.86558V7.70026H57.0232ZM64.8713 5.37078H60.2886C60.3228 5.6438 60.3763 5.85811 60.4496 6.01248C60.5486 6.23496 60.6899 6.43503 60.8782 6.6118C61.065 6.78736 61.2777 6.92235 61.5199 7.01951C61.7605 7.11546 62.0105 7.1642 62.2702 7.1642C62.8227 7.1642 63.2954 6.97564 63.6917 6.59879C63.8415 6.4529 63.968 6.27247 64.0722 6.05635H64.795C64.6681 6.34693 64.5543 6.5664 64.452 6.7126C64.3512 6.85879 64.2084 7.00832 64.0249 7.1642C63.7876 7.37033 63.5116 7.53136 63.198 7.64487C62.8844 7.76049 62.5693 7.81711 62.2509 7.81711C61.7732 7.81711 61.3331 7.70026 60.9303 7.4681C60.5274 7.23413 60.2074 6.91387 59.9719 6.50766C59.7362 6.10176 59.6178 5.65832 59.6178 5.17584C59.6178 4.69668 59.7347 4.25326 59.9701 3.84705C60.2041 3.44115 60.524 3.11909 60.9272 2.88209C61.3316 2.64327 61.7702 2.5246 62.2427 2.5246C62.6407 2.5246 63.0209 2.61058 63.3784 2.78129C63.7359 2.95382 64.0428 3.19567 64.2962 3.50925C64.5365 3.808 64.7042 4.14912 64.795 4.53262C64.8274 4.67549 64.8519 4.95489 64.8713 5.37078ZM60.3113 4.74693H64.1727C64.1224 4.45786 64.0022 4.193 63.8152 3.95267C63.6317 3.71234 63.4011 3.52228 63.1232 3.38395C62.8472 3.24592 62.5563 3.17751 62.2509 3.17751C61.9406 3.17751 61.6516 3.24257 61.3837 3.37091C61.1155 3.49955 60.8879 3.683 60.7011 3.92515C60.5144 4.16215 60.3845 4.43667 60.3113 4.74693ZM70.8869 5.37078H66.3045C66.3384 5.6438 66.3919 5.85811 66.4652 6.01248C66.5642 6.23496 66.7055 6.43503 66.8938 6.6118C67.0809 6.78736 67.2937 6.92235 67.5355 7.01951C67.7761 7.11546 68.0262 7.1642 68.2862 7.1642C68.8386 7.1642 69.3111 6.97564 69.7076 6.59879C69.8571 6.4529 69.9837 6.27247 70.0878 6.05635H70.8106C70.6838 6.34693 70.57 6.5664 70.4676 6.7126C70.3671 6.85879 70.224 7.00832 70.0409 7.1642C69.8036 7.37033 69.5272 7.53136 69.2136 7.64487C68.9003 7.76049 68.5849 7.81711 68.2665 7.81711C67.7889 7.81711 67.3488 7.70026 66.9459 7.4681C66.543 7.23413 66.2231 6.91387 65.9876 6.50766C65.7518 6.10176 65.6334 5.65832 65.6334 5.17584C65.6334 4.69668 65.7502 4.25326 65.9857 3.84705C66.2197 3.44115 66.5397 3.11909 66.9428 2.88209C67.3472 2.64327 67.7858 2.5246 68.2586 2.5246C68.6566 2.5246 69.0365 2.61058 69.394 2.78129C69.7515 2.95382 70.0584 3.19567 70.3121 3.50925C70.5524 3.808 70.7198 4.14912 70.8106 4.53262C70.843 4.67549 70.8675 4.95489 70.8869 5.37078ZM66.3269 4.74693H70.1886C70.138 4.45786 70.0178 4.193 69.8311 3.95267C69.6473 3.71234 69.4167 3.52228 69.1388 3.38395C68.8631 3.24592 68.5719 3.17751 68.2665 3.17751C67.9566 3.17751 67.6672 3.24257 67.3993 3.37091C67.1311 3.49955 66.9035 3.683 66.7167 3.92515C66.53 4.16215 66.4001 4.43667 66.3269 4.74693ZM72.1948 7.70026V3.2559H71.4102V2.63175H72.1948C72.1948 2.3218 72.2338 2.06483 72.3134 1.86173C72.393 1.64894 72.5117 1.467 72.6724 1.31778C72.8316 1.16674 73.0232 1.05142 73.2475 0.971816C73.4748 0.895236 73.7252 0.858013 73.9979 0.858013H74.1214V1.48154H73.9979C73.2509 1.48154 72.8773 1.83267 72.8773 2.53279V2.63175H74.1295V3.2559H72.8773V7.70026H72.1948ZM79.8104 5.37078H75.228C75.2619 5.6438 75.3155 5.85811 75.3887 6.01248C75.4877 6.23496 75.6291 6.43503 75.8174 6.6118C76.0044 6.78736 76.2172 6.92235 76.4591 7.01951C76.6997 7.11546 76.9497 7.1642 77.2097 7.1642C77.7621 7.1642 78.2346 6.97564 78.6311 6.59879C78.7807 6.4529 78.9072 6.27247 79.0113 6.05635H79.7344C79.6076 6.34693 79.4938 6.5664 79.3915 6.7126C79.2907 6.85879 79.1475 7.00832 78.9644 7.1642C78.7271 7.37033 78.4507 7.53136 78.1374 7.64487C77.8239 7.76049 77.5088 7.81711 77.1903 7.81711C76.7127 7.81711 76.2726 7.70026 75.8694 7.4681C75.4665 7.23413 75.1469 6.91387 74.9111 6.50766C74.6756 6.10176 74.5569 5.65832 74.5569 5.17584C74.5569 4.69668 74.6738 4.25326 74.9096 3.84705C75.1436 3.44115 75.4632 3.11909 75.8664 2.88209C76.2708 2.64327 76.7094 2.5246 77.1822 2.5246C77.5802 2.5246 77.9601 2.61058 78.3175 2.78129C78.675 2.95382 78.9822 3.19567 79.2356 3.50925C79.4759 3.808 79.6433 4.14912 79.7344 4.53262C79.7665 4.67549 79.791 4.95489 79.8104 5.37078ZM75.2504 4.74693H79.1121C79.0615 4.45786 78.9414 4.193 78.7546 3.95267C78.5709 3.71234 78.3406 3.52228 78.0624 3.38395C77.7866 3.24592 77.4957 3.17751 77.1903 3.17751C76.8801 3.17751 76.5907 3.24257 76.3228 3.37091C76.0547 3.49955 75.827 3.683 75.6406 3.92515C75.4535 4.16215 75.3237 4.43667 75.2504 4.74693ZM80.7675 7.70026V2.63175H81.4107V3.35971C81.5067 3.18264 81.6008 3.04947 81.6967 2.96169C81.8136 2.84455 81.9534 2.75072 82.1145 2.68049C82.2964 2.6027 82.5531 2.55063 82.8842 2.5246V3.2005C82.5936 3.23138 82.3563 3.29947 82.1729 3.40511C81.9032 3.57553 81.7049 3.7868 81.5784 4.03712C81.4921 4.19966 81.4498 4.47572 81.4498 4.86558V7.70026H80.7675ZM90.399 6.21709H91.1609C91.0359 6.45289 90.932 6.62965 90.8491 6.7483C90.7644 6.86696 90.6605 6.9841 90.5373 7.09761C90.027 7.57676 89.4098 7.81711 88.687 7.81711C88.1785 7.81711 87.7139 7.70208 87.2929 7.46961C86.8706 7.23563 86.5373 6.91568 86.2924 6.5128C86.0488 6.1066 85.9268 5.66165 85.9268 5.17584C85.9268 4.69335 86.0488 4.24992 86.2937 3.84371C86.5373 3.43781 86.8706 3.11607 87.2929 2.88209C87.7139 2.64327 88.1718 2.5246 88.6673 2.5246C89.4407 2.5246 90.0984 2.80096 90.6409 3.35306C90.8328 3.5498 91.0083 3.82251 91.1691 4.17212H90.399C90.2495 3.956 90.1003 3.78529 89.9507 3.65847C89.5736 3.33852 89.1417 3.17751 88.6562 3.17751C88.2823 3.17751 87.9382 3.26709 87.6228 3.44416C87.3092 3.6179 87.0607 3.85826 86.8806 4.16216C86.6999 4.46757 86.6091 4.799 86.6091 5.15647C86.6091 5.53181 86.6987 5.87111 86.8754 6.17985C87.0543 6.48375 87.2995 6.72562 87.6131 6.90269C87.9249 7.07643 88.2693 7.1642 88.6462 7.1642C88.9858 7.1642 89.3009 7.09277 89.5899 6.9499C89.751 6.86696 89.8875 6.77767 89.9992 6.67869C90.1099 6.5779 90.2428 6.42353 90.399 6.21709ZM92.1174 7.70026V0.858013H92.7999V3.36275C92.9834 3.07036 93.2077 2.85757 93.4707 2.72439C93.7374 2.59121 94.0703 2.5246 94.4699 2.5246C95.196 2.5246 95.7515 2.76495 96.1353 3.24774C96.2878 3.43783 96.4013 3.65211 96.4779 3.88912C96.5608 4.1688 96.6014 4.54869 96.6014 5.03117V7.70026H95.9091V5.03297C95.9091 4.80717 95.8931 4.58621 95.8622 4.36677C95.802 3.99325 95.641 3.70086 95.3813 3.4914C95.1197 3.28163 94.7898 3.17751 94.3905 3.17751C94.1239 3.17751 93.8687 3.23622 93.6235 3.35306C93.3881 3.46536 93.2028 3.61457 93.0663 3.80496C92.9622 3.94117 92.8907 4.09556 92.8553 4.26597C92.8178 4.4382 92.7999 4.69336 92.7999 5.03297V7.70026H92.1174ZM102.919 2.63175V7.69875H102.256V6.74496C102.133 6.95775 101.993 7.13666 101.837 7.28285C101.421 7.63851 100.909 7.81711 100.3 7.81711C99.894 7.81711 99.4815 7.7166 99.0623 7.51501C98.6433 7.31373 98.3119 7.05705 98.0682 6.7468C97.9154 6.54702 97.7937 6.30487 97.7026 6.02035C97.6133 5.73612 97.5679 5.45191 97.5679 5.16617C97.5679 4.69004 97.6899 4.24992 97.9317 3.84371C98.1754 3.43781 98.505 3.11607 98.9242 2.88209C99.3401 2.64327 99.792 2.5246 100.281 2.5246C100.586 2.5246 100.874 2.57183 101.145 2.66778C101.417 2.76343 101.65 2.90175 101.847 3.08185C102 3.21503 102.136 3.38907 102.256 3.60186V2.63175H102.919ZM100.318 3.17751C99.9364 3.17751 99.5871 3.26708 99.2702 3.44567C98.9518 3.62607 98.7036 3.86974 98.5216 4.17667C98.3409 4.4839 98.2501 4.82018 98.2501 5.18583C98.2501 5.53967 98.3427 5.8693 98.5262 6.17169C98.7099 6.47559 98.9584 6.71591 99.272 6.89601C99.5856 7.0749 99.9234 7.1642 100.289 7.1642C100.638 7.1642 100.965 7.0749 101.269 6.89601C101.571 6.71591 101.811 6.47559 101.99 6.17169C102.167 5.8693 102.256 5.53967 102.256 5.18583C102.256 4.82987 102.168 4.49692 101.995 4.18637C101.819 3.8746 101.584 3.62941 101.285 3.44901C100.986 3.26861 100.664 3.17751 100.318 3.17751ZM104.088 7.70026V2.63175H104.732V3.35971C104.828 3.18264 104.922 3.04947 105.018 2.96169C105.135 2.84455 105.275 2.75072 105.435 2.68049C105.617 2.6027 105.874 2.55063 106.205 2.5246V3.2005C105.915 3.23138 105.677 3.29947 105.494 3.40511C105.224 3.57553 105.026 3.7868 104.899 4.03712C104.813 4.19966 104.771 4.47572 104.771 4.86558V7.70026H104.088ZM107.463 7.70026V3.2559H106.402V2.63175H107.463V0.858013H108.145V2.63175H109.323V3.2559H108.145V7.70026H107.463ZM115.078 5.37078H110.496C110.53 5.6438 110.583 5.85811 110.657 6.01248C110.756 6.23496 110.897 6.43503 111.085 6.6118C111.272 6.78736 111.485 6.92235 111.727 7.01951C111.968 7.11546 112.218 7.1642 112.477 7.1642C113.03 7.1642 113.503 6.97564 113.899 6.59879C114.049 6.4529 114.175 6.27247 114.279 6.05635H115.002C114.875 6.34693 114.761 6.5664 114.659 6.7126C114.558 6.85879 114.415 7.00832 114.232 7.1642C113.995 7.37033 113.719 7.53136 113.405 7.64487C113.092 7.76049 112.776 7.81711 112.458 7.81711C111.98 7.81711 111.54 7.70026 111.137 7.4681C110.734 7.23413 110.415 6.91387 110.179 6.50766C109.943 6.10176 109.825 5.65832 109.825 5.17584C109.825 4.69668 109.942 4.25326 110.177 3.84705C110.411 3.44115 110.731 3.11909 111.134 2.88209C111.539 2.64327 111.977 2.5246 112.45 2.5246C112.848 2.5246 113.228 2.61058 113.586 2.78129C113.943 2.95382 114.25 3.19567 114.503 3.50925C114.744 3.808 114.911 4.14912 115.002 4.53262C115.034 4.67549 115.059 4.95489 115.078 5.37078ZM110.518 4.74693H114.38C114.33 4.45786 114.209 4.193 114.022 3.95267C113.839 3.71234 113.608 3.52228 113.33 3.38395C113.054 3.24592 112.763 3.17751 112.458 3.17751C112.148 3.17751 111.859 3.24257 111.591 3.37091C111.323 3.49955 111.095 3.683 110.908 3.92515C110.721 4.16215 110.592 4.43667 110.518 4.74693ZM116.035 7.70026V2.63175H116.679V3.35971C116.775 3.18264 116.869 3.04947 116.965 2.96169C117.082 2.84455 117.221 2.75072 117.382 2.68049C117.564 2.6027 117.821 2.55063 118.152 2.5246V3.2005C117.862 3.23138 117.624 3.29947 117.441 3.40511C117.171 3.57553 116.973 3.7868 116.846 4.03712C116.76 4.19966 116.718 4.47572 116.718 4.86558V7.70026H116.035ZM118.824 7.70026V2.63175H119.507V7.70026H118.824ZM118.824 2.02759V0.858013H119.507V2.02759H118.824ZM120.677 7.70026V2.63175H121.32V3.4245C121.451 3.2214 121.572 3.06701 121.682 2.9635C122.012 2.6708 122.462 2.5246 123.029 2.5246C123.755 2.5246 124.31 2.76495 124.694 3.24774C124.847 3.43783 124.96 3.65211 125.037 3.88912C125.12 4.1688 125.16 4.54869 125.16 5.03117V7.70026H124.468V5.03297C124.468 4.80717 124.452 4.58621 124.421 4.36677C124.361 3.99325 124.2 3.70086 123.94 3.4914C123.679 3.28163 123.349 3.17751 122.949 3.17751C122.683 3.17751 122.428 3.23622 122.182 3.35306C121.947 3.46536 121.762 3.61457 121.625 3.80496C121.521 3.94117 121.45 4.09556 121.414 4.26597C121.377 4.4382 121.359 4.69336 121.359 5.03297V7.70026H120.677ZM131.381 2.63175V6.97562C131.381 7.35428 131.364 7.64032 131.333 7.83677C131.281 8.1894 131.103 8.53024 130.796 8.86017C130.63 9.03543 130.44 9.18344 130.227 9.30542C130.013 9.4271 129.784 9.51972 129.538 9.58328C129.295 9.64624 129.046 9.67894 128.796 9.67894C128.406 9.67894 128.032 9.59448 127.675 9.42709C127.318 9.2597 127.015 9.02572 126.768 8.72364C126.578 8.48966 126.426 8.1876 126.312 7.81711H126.972C127.171 8.15521 127.36 8.4022 127.538 8.55657C127.897 8.87015 128.331 9.02573 128.84 9.02573C129.199 9.02573 129.527 8.94612 129.826 8.78873C130.125 8.62951 130.352 8.41672 130.508 8.14702C130.597 7.98781 130.656 7.83013 130.684 7.67455C130.713 7.51685 130.727 7.28619 130.727 6.97745L130.732 6.69805C130.614 6.93203 130.497 7.10426 130.38 7.21141C130.186 7.40301 129.945 7.55105 129.659 7.6582C129.371 7.76384 129.072 7.81711 128.76 7.81711C128.284 7.81711 127.844 7.70025 127.439 7.46476C127.033 7.23079 126.715 6.91265 126.479 6.5128C126.244 6.10993 126.127 5.67469 126.127 5.20522C126.127 4.82988 126.192 4.48057 126.32 4.15397C126.449 3.82918 126.629 3.54467 126.863 3.301C127.097 3.05583 127.371 2.86423 127.69 2.72439C128.003 2.59121 128.341 2.5246 128.703 2.5246C129.338 2.5246 129.874 2.71319 130.313 3.09155C130.456 3.21807 130.596 3.39542 130.732 3.61971V2.63175H131.381ZM128.729 3.17751C128.377 3.17751 128.053 3.26557 127.758 3.43931C127.462 3.60973 127.23 3.84704 127.062 4.14761C126.893 4.4497 126.809 4.77962 126.809 5.13679C126.809 5.51878 126.893 5.86295 127.062 6.17018C127.233 6.48044 127.469 6.72562 127.768 6.90269C128.067 7.07643 128.4 7.1642 128.768 7.1642C129.127 7.1642 129.455 7.07492 129.754 6.89784C130.053 6.72077 130.291 6.4768 130.464 6.17018C130.633 5.86295 130.718 5.52515 130.718 5.15647C130.718 4.80384 130.628 4.47571 130.451 4.17212C130.272 3.86792 130.031 3.62607 129.723 3.44567C129.417 3.26708 129.087 3.17751 128.729 3.17751Z" fill="#252525"/>
</svg>
